<?xml version="1.0" standalone="no"?>
<!DOCTYPE svg PUBLIC "-//W3C//DTD SVG 20010904//EN"
 "http://www.w3.org/TR/2001/REC-SVG-20010904/DTD/svg10.dtd">
<svg version="1.0" xmlns="http://www.w3.org/2000/svg"
 width="160.000000pt" height="160.000000pt" viewBox="0 0 160.000000 160.000000"
 preserveAspectRatio="xMidYMid meet">
<metadata>
Created by potrace 1.11, written by Peter Selinger 2001-2013
</metadata>
<g transform="translate(0.000000,160.000000) scale(0.100000,-0.100000)"
fill="#000000" stroke="none">
<path d="M873 1565 c-42 -18 -67 -67 -60 -117 4 -29 2 -38 -9 -38 -33 0 -74
-31 -82 -63 -14 -51 7 -97 60 -132 25 -16 56 -46 69 -65 13 -19 40 -53 61 -77
33 -38 66 -108 56 -118 -2 -3 -40 11 -84 30 -43 18 -111 43 -149 53 -69 19
-71 19 -140 0 -69 -18 -98 -25 -143 -33 -44 -7 -60 -16 -76 -39 -35 -55 -25
-120 23 -149 33 -19 61 -23 111 -13 19 4 71 7 116 8 79 0 82 -1 132 -39 29
-21 75 -47 102 -57 28 -10 50 -19 50 -20 0 -20 -39 -106 -54 -120 -35 -32
-179 -95 -209 -92 -30 4 -96 46 -113 73 -6 10 -19 43 -28 73 -35 111 -102 173
-189 173 -45 0 -90 -30 -95 -62 -2 -12 4 -40 12 -62 9 -22 18 -57 21 -77 12
-97 20 -118 86 -217 79 -121 101 -148 187 -233 74 -73 98 -87 196 -112 107
-27 191 -21 338 25 141 44 185 85 219 199 29 100 41 136 89 260 27 72 40 120
37 140 -3 17 -29 87 -59 156 -57 131 -100 246 -118 318 -6 23 -34 77 -63 120
-29 42 -66 100 -82 127 -68 118 -137 196 -172 195 -4 -1 -22 -7 -40 -15z"/>
</g>
</svg>
